HIERARCHY
ROOT Hips
{
    OFFSET   0.000000   0.000000   0.000000
    CHANNELS 6 Xposition Yposition Zposition Zrotation Xrotation Yrotation
    JOINT Chest
    {
        OFFSET   0.000000   8.007240   0.000000
        CHANNELS 3 Zrotation Xrotation Yrotation
        JOINT Chest2
        {
            OFFSET   0.000000  22.077100   0.000000
            CHANNELS 3 Zrotation Xrotation Yrotation
            JOINT Neck
            {
                OFFSET   0.000000  23.254800   0.000000
                CHANNELS 3 Zrotation Xrotation Yrotation
                JOINT Head
                {
                    OFFSET   0.000000  14.370000   1.956600
                    CHANNELS 3 Zrotation Xrotation Yrotation
                    End Site
                    {
                        OFFSET   0.000000  19.566000   0.000000
                    }
                }
            }
            JOINT LeftCollar
            {
                OFFSET   3.911900  19.017000  -0.467064
                CHANNELS 3 Zrotation Xrotation Yrotation
                JOINT LeftShoulder
                {
                    OFFSET  10.383700   0.000000   0.000000
                    CHANNELS 3 Zrotation Xrotation Yrotation
                    JOINT LeftElbow
                    {
                        OFFSET  26.662100   0.001476   0.000517
                        CHANNELS 3 Zrotation Xrotation Yrotation
                        JOINT LeftWrist
                        {
                            OFFSET  28.869000  -0.000025  -0.000106
                            CHANNELS 3 Zrotation Xrotation Yrotation
                            JOINT LeftFinger0
                            {
                                OFFSET   2.044660  -2.323460   3.252850
                                CHANNELS 3 Zrotation Xrotation Yrotation
                                JOINT LeftFinger01
                                {
                                    OFFSET   3.088130   0.000000   0.000000
                                    CHANNELS 3 Zrotation Xrotation Yrotation
                                    JOINT LeftFinger02
                                    {
                                        OFFSET   2.639460   0.000000   0.000000
                                        CHANNELS 3 Zrotation Xrotation Yrotation
                                        End Site
                                        {
                                            OFFSET   2.582190   0.000000   0.000000
                                        }
                                    }
                                }
                            }
                            JOINT LeftFinger1
                            {
                                OFFSET   8.364480   0.000000   3.252850
                                CHANNELS 3 Zrotation Xrotation Yrotation
                                JOINT LeftFinger11
                                {
                                    OFFSET   4.646930   0.000000   0.000000
                                    CHANNELS 3 Zrotation Xrotation Yrotation
                                    JOINT LeftFinger12
                                    {
                                        OFFSET   2.323460   0.000000   0.000000
                                        CHANNELS 3 Zrotation Xrotation Yrotation
                                        End Site
                                        {
                                            OFFSET   2.273050   0.000000   0.000000
                                        }
                                    }
                                }
                            }
                            JOINT LeftFinger2
                            {
                                OFFSET   8.364490   0.000015   1.078090
                                CHANNELS 3 Zrotation Xrotation Yrotation
                                JOINT LeftFinger21
                                {
                                    OFFSET   5.111620   0.000000   0.000000
                                    CHANNELS 3 Zrotation Xrotation Yrotation
                                    JOINT LeftFinger22
                                    {
                                        OFFSET   2.788160   0.000016   0.000000
                                        CHANNELS 3 Zrotation Xrotation Yrotation
                                        End Site
                                        {
                                            OFFSET   2.727660   0.000000   0.000000
                                        }
                                    }
                                }
                            }
                            JOINT LeftFinger3
                            {
                                OFFSET   7.899780   0.000017  -1.078090
                                CHANNELS 3 Zrotation Xrotation Yrotation
                                JOINT LeftFinger31
                                {
                                    OFFSET   4.646930   0.000000   0.000000
                                    CHANNELS 3 Zrotation Xrotation Yrotation
                                    JOINT LeftFinger32
                                    {
                                        OFFSET   2.323470   0.000000   0.000000
                                        CHANNELS 3 Zrotation Xrotation Yrotation
                                        End Site
                                        {
                                            OFFSET   2.273050   0.000000   0.000000
                                        }
                                    }
                                }
                            }
                            JOINT LeftFinger4
                            {
                                OFFSET   7.435090   0.000000  -3.252850
                                CHANNELS 3 Zrotation Xrotation Yrotation
                                JOINT LeftFinger41
                                {
                                    OFFSET   3.717550   0.000000   0.000000
                                    CHANNELS 3 Zrotation Xrotation Yrotation
                                    JOINT LeftFinger42
                                    {
                                        OFFSET   1.858770   0.000000   0.000000
                                        CHANNELS 3 Zrotation Xrotation Yrotation
                                        End Site
                                        {
                                            OFFSET   1.818440   0.000000   0.000000
                                        }
                                    }
                                }
                            }
                        }
                    }
                }
            }
            JOINT RightCollar
            {
                OFFSET  -3.911900  19.017000  -0.467063
                CHANNELS 3 Zrotation Xrotation Yrotation
                JOINT RightShoulder
                {
                    OFFSET -10.383700   0.000019   0.000000
                    CHANNELS 3 Zrotation Xrotation Yrotation
                    JOINT RightElbow
                    {
                        OFFSET -26.662100   0.001175   0.000102
                        CHANNELS 3 Zrotation Xrotation Yrotation
                        JOINT RightWrist
                        {
                            OFFSET -28.869000   0.000016  -0.000079
                            CHANNELS 3 Zrotation Xrotation Yrotation
                            JOINT RightFinger0
                            {
                                OFFSET  -2.044660  -2.323490   3.252850
                                CHANNELS 3 Zrotation Xrotation Yrotation
                                JOINT RightFinger01
                                {
                                    OFFSET  -3.088140   0.000000   0.000000
                                    CHANNELS 3 Zrotation Xrotation Yrotation
                                    JOINT RightFinger02
                                    {
                                        OFFSET  -2.639460   0.000000   0.000000
                                        CHANNELS 3 Zrotation Xrotation Yrotation
                                        End Site
                                        {
                                            OFFSET  -2.582190   0.000000   0.000000
                                        }
                                    }
                                }
                            }
                            JOINT RightFinger1
                            {
                                OFFSET  -8.364480   0.000000   3.252850
                                CHANNELS 3 Zrotation Xrotation Yrotation
                                JOINT RightFinger11
                                {
                                    OFFSET  -4.646930   0.000000   0.000000
                                    CHANNELS 3 Zrotation Xrotation Yrotation
                                    JOINT RightFinger12
                                    {
                                        OFFSET  -2.323470   0.000000   0.000000
                                        CHANNELS 3 Zrotation Xrotation Yrotation
                                        End Site
                                        {
                                            OFFSET  -2.273050   0.000000   0.000000
                                        }
                                    }
                                }
                            }
                            JOINT RightFinger2
                            {
                                OFFSET  -8.364480   0.000000   1.078090
                                CHANNELS 3 Zrotation Xrotation Yrotation
                                JOINT RightFinger21
                                {
                                    OFFSET  -5.111620   0.000000   0.000000
                                    CHANNELS 3 Zrotation Xrotation Yrotation
                                    JOINT RightFinger22
                                    {
                                        OFFSET  -2.788160   0.000000   0.000000
                                        CHANNELS 3 Zrotation Xrotation Yrotation
                                        End Site
                                        {
                                            OFFSET  -2.727660   0.000000   0.000000
                                        }
                                    }
                                }
                            }
                            JOINT RightFinger3
                            {
                                OFFSET  -7.899780   0.000000  -1.078090
                                CHANNELS 3 Zrotation Xrotation Yrotation
                                JOINT RightFinger31
                                {
                                    OFFSET  -4.646930   0.000000   0.000000
                                    CHANNELS 3 Zrotation Xrotation Yrotation
                                    JOINT RightFinger32
                                    {
                                        OFFSET  -2.323470   0.000000   0.000000
                                        CHANNELS 3 Zrotation Xrotation Yrotation
                                        End Site
                                        {
                                            OFFSET  -2.273050   0.000000   0.000000
                                        }
                                    }
                                }
                            }
                            JOINT RightFinger4
                            {
                                OFFSET  -7.435090   0.000000  -3.252850
                                CHANNELS 3 Zrotation Xrotation Yrotation
                                JOINT RightFinger41
                                {
                                    OFFSET  -3.717550   0.000000   0.000000
                                    CHANNELS 3 Zrotation Xrotation Yrotation
                                    JOINT RightFinger42
                                    {
                                        OFFSET  -1.858770   0.000000   0.000000
                                        CHANNELS 3 Zrotation Xrotation Yrotation
                                        End Site
                                        {
                                            OFFSET  -1.818440   0.000000   0.000000
                                        }
                                    }
                                }
                            }
                        }
                    }
                }
            }
        }
    }
    JOINT LeftHip
    {
        OFFSET   9.783040   0.000000   0.000000
        CHANNELS 3 Zrotation Xrotation Yrotation
        JOINT LeftKnee
        {
            OFFSET   0.000032 -41.789100  -0.002222
            CHANNELS 3 Zrotation Xrotation Yrotation
            JOINT LeftAnkle
            {
                OFFSET   0.000087 -41.133200  -0.000135
                CHANNELS 3 Zrotation Xrotation Yrotation
                JOINT LeftToe
                {
                    OFFSET   0.000000  -6.358960  14.674500
                    CHANNELS 3 Zrotation Xrotation Yrotation
                    End Site
                    {
                        OFFSET   0.000000   0.000000   3.913200
                    }
                }
            }
        }
    }
    JOINT RightHip
    {
        OFFSET  -9.783040   0.000000   0.000000
        CHANNELS 3 Zrotation Xrotation Yrotation
        JOINT RightKnee
        {
            OFFSET   0.000047 -41.789100  -0.000896
            CHANNELS 3 Zrotation Xrotation Yrotation
            JOINT RightAnkle
            {
                OFFSET  -0.000117 -41.133300  -0.000248
                CHANNELS 3 Zrotation Xrotation Yrotation
                JOINT RightToe
                {
                    OFFSET   0.000000  -6.358970  14.674500
                    CHANNELS 3 Zrotation Xrotation Yrotation
                    End Site
                    {
                        OFFSET   0.000000   0.000000   3.913200
                    }
                }
            }
        }
    }
}
MOTION
Frames: 5
Frame Time:   0.016667
  0.148300  89.467700  -1.491760  -0.518604  -6.034980   1.896250   0.708151   4.600850  -0.481565   1.462300   9.195200  -1.025330   0.673164  -0.133602  -0.001658   1.105890  -0.271066   9.273550  -4.880270   2.407500  10.953300 -78.129300  11.748300  -2.649500  -1.235940   1.311690 -12.278900   5.670440  -3.434410  -3.999280  37.080200  27.905200 -52.778600 -32.637700   0.134742   0.192001 -11.318400   0.070831   0.082171 -29.551400  -1.425270   2.512060 -24.204000   0.000769  -0.001617 -16.940000  -0.002794   0.001225 -28.499000  -3.894240   7.133550 -40.123400  -0.001432  -0.006389 -26.722200   0.000766  -0.003839 -27.383300  -3.760340   7.207950 -29.843600   0.007770  -0.006067 -19.875800  -0.000076  -0.004278 -28.266800  -3.866230   7.141650 -42.764800  -0.004071  -0.000197 -28.479900  -0.004879  -0.005196   3.227840   6.370090  10.769100  57.027600 -13.966200  43.037500 -15.494400 -15.077800  99.583700 -51.488400  45.026600  35.271900 -41.769300  38.610600  81.566300 -18.172200   0.000941   0.000544 -14.086300  -0.006814   0.001217   0.267858   0.070452  14.807500   0.213674   0.001953  -0.001147   0.149579   0.000337  -0.000724  -5.779490   0.094997  -0.950797   0.000001   0.006116  -0.005000   0.000000   0.004944  -0.001957  -3.636770   0.973546 -14.969200   0.000000   0.000352  -0.000687  -0.000000  -0.000520  -0.000390   2.295510  -1.546430 -33.936400   4.150710   0.000906   0.000696   2.764380   0.001004   0.001307   3.380220   8.125470   0.186783  -0.048041   0.621835  13.415600  -3.317240  -3.234180  -0.891721   0.000000   0.000000  -0.000000  -1.858300   8.740290  -3.075770   1.467820   0.237686 -13.496000   1.001840  -2.508560  -1.115760  -0.000000   0.000000   0.000000
  0.151928  89.467700  -1.469730  -0.526333  -6.012600   1.864360   0.708755   4.582010  -0.495370   1.464420   9.157300  -1.052840   0.653636  -0.159282  -0.001786   1.073820  -0.323047   9.293410  -4.879450   2.419790  10.950600 -78.104200  11.783100  -2.659330  -1.241660   1.315420 -12.300800   5.665760  -3.422800  -4.002760  37.076100  27.916600 -52.764000 -32.641400  -0.028507  -0.018198 -11.320700  -0.014473  -0.031287 -29.544100  -1.441790   2.541860 -24.198500   0.000860   0.007680 -16.939000  -0.002781   0.006770 -28.499300  -3.893790   7.133240 -40.116300  -0.001549   0.007987 -26.717400  -0.004059   0.003678 -27.383600  -3.760170   7.207640 -29.831900   0.007789   0.005760 -19.868000  -0.004678   0.001425 -28.261800  -3.866360   7.142500 -42.759600  -0.009695   0.000234 -28.475000  -0.004887  -0.005381   3.221770   6.395590  10.793500  57.025000 -13.920600  43.116600 -15.505100 -15.086700  99.573400 -51.686400  44.926700  35.481200 -41.560000  38.480000  81.460800 -18.146900   0.000855   0.000604 -14.073500  -0.006911   0.001261   0.431348   0.113621  14.861400   0.365093   0.001870  -0.001099   0.255592   0.000389  -0.000672  -5.355390   0.092538  -1.013790   0.000001   0.006334  -0.004947   0.000000   0.005041  -0.001950  -3.234890   0.866128 -14.975300   0.000000   0.000445  -0.000663  -0.000000  -0.000443  -0.000386   2.366190  -1.590390 -33.885400   4.275990   0.000981   0.000715   2.847820   0.001067   0.001214   3.385090   8.118300   0.195595  -0.052592   0.624641  13.415500  -3.316160  -3.253840  -0.870661  -0.000000   0.000000   0.000000  -1.859140   8.727490  -3.075140   1.465930   0.242919 -13.484900   1.002970  -2.516470  -1.095660   0.000000   0.000000  -0.000000
  0.154286  89.467700  -1.449230  -0.534070  -5.988660   1.826070   0.709255   4.563860  -0.504262   1.465830   9.120910  -1.070480   0.638973  -0.186091  -0.001912   1.049760  -0.377286   9.286210  -4.879130   2.429080  10.938600 -78.074600  11.818300  -2.668210  -1.244060   1.310250 -12.307300   5.667850  -3.412170  -3.997490  37.060300  27.892400 -52.719400 -32.651700   0.091235   0.144898 -11.325800   0.041969   0.063684 -29.538600  -1.450740   2.558180 -24.194300   0.005618  -0.024608 -16.936400   0.016528  -0.018330 -28.499600  -3.893430   7.132980 -40.120800  -0.001665  -0.021782 -26.720500   0.008718  -0.011561 -27.383900  -3.760040   7.207370 -29.832000   0.007802  -0.013504 -19.868000   0.003838  -0.008048 -28.264600  -3.866500   7.143410 -42.761800  -0.004550  -0.010006 -28.477900   0.002177  -0.005572   3.216970   6.416850  10.813500  57.043300 -13.915900  43.191800 -15.425700 -15.024500  99.562200 -51.873300  44.829100  35.682400 -41.451000  38.379200  81.354900 -18.143300   0.000767   0.000471 -14.071700  -0.006990   0.001305   0.680948   0.179232  14.792300   0.576939   0.001794  -0.001065   0.403879   0.000444  -0.000650  -4.762420   0.098496  -1.216340   0.000001   0.006566  -0.004902   0.000000   0.005136  -0.001953  -2.713940   0.726876 -14.982800   0.000000   0.000536  -0.000650  -0.000000  -0.000366  -0.000374   2.437820  -1.638740 -33.895600   4.405980   0.001048   0.000725   2.934390   0.001124   0.001121   3.384940   8.108420   0.204159  -0.057390   0.635021  13.421300  -3.314260  -3.276550  -0.847924  -0.000000   0.000000   0.000000  -1.858270   8.733090  -3.076690   1.465380   0.198029 -13.464900   1.001270  -2.500550  -1.076120   0.000000   0.000000   0.000000
  0.156839  89.467600  -1.429270  -0.542060  -5.964280   1.782230   0.709552   4.545640  -0.510118   1.466780   9.084400  -1.082010   0.627367  -0.210929  -0.002043   1.030720  -0.427596   9.263370  -4.878910   2.438860  10.922600 -78.046900  11.839400  -2.672840  -1.246050   1.302000 -12.308200   5.671630  -3.406010  -3.987420  37.040600  27.851000 -52.660300 -32.666600   0.210974   0.307996 -11.333100   0.098410   0.158655 -29.533500  -1.457850   2.571240 -24.190500   0.010284  -0.056991 -16.933400   0.035825  -0.043853 -28.499800  -3.893110   7.132770 -40.125400  -0.001780  -0.051550 -26.723500   0.021682  -0.026800 -27.384100  -3.759930   7.207160 -29.832300   0.007807  -0.032864 -19.868300   0.013115  -0.017522 -28.267400  -3.866650   7.144430 -42.763900   0.002604  -0.020246 -28.480800   0.010425  -0.005767   3.212980   6.438310  10.824800  57.062500 -13.919000  43.259800 -15.351700 -14.931200  99.529800 -52.018100  44.733900  35.862800 -41.433800  38.324600  81.291400 -18.142800   0.000679   0.000323 -14.071400  -0.007062   0.001348   0.907602   0.238785  14.723200   0.767803   0.001723  -0.001040   0.537472   0.000505  -0.000635  -4.209350   0.105763  -1.418970   0.000001   0.006808  -0.004856   0.000000   0.005236  -0.001963  -2.221450   0.595193 -14.988900   0.000000   0.000629  -0.000645  -0.000000  -0.000288  -0.000366   2.520910  -1.696000 -33.913400   4.557130   0.001107   0.000728   3.035040   0.001182   0.001025   3.384080   8.099560   0.211491  -0.061206   0.642639  13.434600  -3.310210  -3.299150  -0.823006  -0.000000   0.000000   0.000000  -1.857250   8.738690  -3.078240   1.464850   0.153133 -13.444300   0.999634  -2.484620  -1.054840   0.000000   0.000000   0.000000
  0.161125  89.467600  -1.409290  -0.550068  -5.939630   1.733190   0.709771   4.526040  -0.513237   1.467280   9.045180  -1.088000   0.619635  -0.229746  -0.002191   1.018000  -0.465974   9.219110  -4.877350   2.451580  10.901600 -78.027200  11.837600  -2.665390  -1.238880   1.295950 -12.303900   5.674300  -3.421940  -3.977670  37.027200  27.832600 -52.609700 -32.686200   0.209323   0.306612 -11.342800   0.097614   0.157925 -29.529600  -1.467090   2.587890 -24.187700   0.010179  -0.057101 -16.931400   0.035742  -0.044347 -28.499900  -3.892770   7.132600 -40.119900  -0.001898  -0.051547 -26.719800   0.021900  -0.026775 -27.384300  -3.759860   7.207000 -29.834500   0.006434  -0.032975 -19.869800   0.014003  -0.017446 -28.265400  -3.866790   7.145430 -42.761100   0.005502  -0.020151 -28.478900   0.011807  -0.005967   3.208930   6.464360  10.826100  57.084800 -13.920500  43.312700 -15.264700 -14.866900  99.484600 -52.075000  44.640800  35.976300 -41.507300  38.369200  81.320600 -18.157800   0.000593   0.000313 -14.078900  -0.007134   0.001388   0.990102   0.260513  14.732200   0.837638   0.001653  -0.001020   0.586347   0.000574  -0.000612  -3.903200   0.107085  -1.502740   0.000001   0.007054  -0.004800   0.000000   0.005350  -0.001987  -1.892000   0.506811 -14.990900   0.000000   0.000728  -0.000651  -0.000000  -0.000205  -0.000366   2.623030  -1.765790 -33.925400   4.742480   0.001157   0.000722   3.158480   0.001246   0.000917   3.376450   8.095120   0.215484  -0.063513   0.640112  13.454300  -3.302020  -3.317160  -0.796001  -0.000000   0.000000   0.000000  -1.859970   8.716610  -3.066450   1.464590   0.174990 -13.432100   1.009160  -2.504150  -1.033050   0.000000   0.000000   0.000000
